<svg xmlns="http://www.w3.org/2000/svg" width="400" height="400">
  <g fill-rule="evenodd">
    <path d="M194.693.809C182.184 2.892 180.144 4.105 157.391 23c-8.742 7.26-18.797 15.604-22.343 18.541a1818.707 1818.707 0 0 0-11.248 9.4L119 55l-36.6.214-36.6.214-2.677 1.056c-7.365 2.907-11.839 6.66-15.233 12.78-3.261 5.879-3.474 8.241-3.483 38.536l-.007 25.6-10.504 8.717c-11.207 9.3-11.843 9.97-13.093 13.78C-.333 159.355-.245 357.808.895 363.4c4.184 20.536 16.773 32.575 37.461 35.822 6.926 1.087 315.382 1.236 322.528.156 21.949-3.319 34.873-16.099 38.505-38.078.537-3.25.611-15.822.611-103.317 0-111.587.24-102.22-2.721-106.116-.894-1.177-15.735-13.828-20.354-17.351l-1.325-1.011-.007-25.652c-.008-29.724-.179-31.885-2.97-37.56-3.177-6.46-8.125-10.799-15.746-13.81l-2.677-1.057-36.439-.213c-31.547-.184-36.541-.293-37.2-.812-.946-.745-12.714-10.485-29.761-24.63-7.15-5.933-15.93-13.213-19.511-16.179-10.103-8.367-15.696-11.093-26.22-12.781-2.781-.446-5.284-.79-5.562-.765-.279.026-2.445.369-4.814.763m11.48 23.248c3.713 1.312 5.313 2.497 21.227 15.724 8.14 6.766 15.43 12.819 16.2 13.452 1.166.958 1.3 1.218.8 1.553-1.449.971-90.231.455-89.188-.518.103-.097 3.608-3.009 7.788-6.471s8.41-6.974 9.4-7.804c15.932-13.353 17.487-14.52 21.2-15.897 3.197-1.186 9.272-1.205 12.573-.039m144.48 54.31c2.272 1.51 2.147-1.33 2.147 48.716v45.96l-1.3 1.237c-.715.681-5.8 4.965-11.3 9.521-5.5 4.556-10.81 8.962-11.8 9.79-.99.828-5.22 4.344-9.4 7.812l-9.4 7.8-9.4 7.788c-4.18 3.462-8.052 6.68-8.604 7.152-.552.471-1.99 1.667-3.196 2.657a284.72 284.72 0 0 0-3.196 2.657c-.552.471-5.324 4.44-10.604 8.819-5.28 4.38-14.91 12.371-21.4 17.758-6.49 5.388-14.95 12.404-18.8 15.593-3.85 3.188-10.569 8.755-14.93 12.37-4.362 3.616-8.631 6.971-9.487 7.457-6.121 3.477-13.837 3.482-19.946.012-1.439-.817-7.716-5.974-47.068-38.666A26762.995 26762.995 0 0 0 99.4 216.664c-3.96-3.275-7.65-6.339-8.201-6.809-1.819-1.554-18.103-15.062-35.199-29.2-3.19-2.638-6.475-5.431-7.3-6.207l-1.5-1.41v-46.03c0-42.555.051-46.105.676-47.019.796-1.165 1.555-1.695 2.924-2.043 2.324-.59 298.958-.174 299.853.421M110.24 118.589c-10.215 4.2-9.049 18.3 1.76 21.28 2.808.774 112.976.741 115.89-.035 10.729-2.856 11.736-17.574 1.465-21.417-2.164-.809-2.746-.817-59.47-.808l-57.285.01-2.36.97m.632 46.592c-10.843 3.693-9.922 18.661 1.328 21.597 2.234.583 173.366.583 175.6 0 11.46-2.991 12.065-18.486.848-21.747-3.587-1.043-174.697-.899-177.776.15M37.2 194.449a59479.551 59479.551 0 0 1 33.2 27.546 38365.569 38365.569 0 0 1 30.6 25.403c7.92 6.582 18.63 15.472 23.8 19.757 5.17 4.285 11.109 9.219 13.198 10.964 2.089 1.745 4.118 3.397 4.509 3.671 1.169.819.552 1.399-6.811 6.41A12616.922 12616.922 0 0 0 98 314.012c-4.07 2.799-10.46 7.182-14.2 9.74l-18.4 12.583a16972.834 16972.834 0 0 0-36.177 24.8c-4.611 3.18-4.753 3.212-5.465 1.241-.542-1.499-.826-178.375-.288-178.913.149-.149.644.061 1.1.466.457.405 6.14 5.139 12.63 10.52M376.77 272.3c-.036 103.002.482 93.307-4.789 89.638-1.64-1.141-8.021-5.524-14.181-9.742-6.16-4.217-15.88-10.876-21.6-14.798-5.72-3.922-15.44-10.578-21.6-14.792-6.16-4.214-14.845-10.169-19.3-13.234a6933.769 6933.769 0 0 0-32.579-22.262c-5.805-3.93-6.376-4.516-5.202-5.338.405-.284 3.964-3.195 7.909-6.469l22.772-18.905 25.2-20.918c5.28-4.382 10.165-8.443 10.855-9.024.691-.581 6.253-5.196 12.36-10.256a18109.51 18109.51 0 0 0 25.145-20.884c7.722-6.426 14.265-11.691 14.54-11.7.399-.013.494 17.967.47 88.684m-209.056 30.431c14.664 12.2 25.149 15.824 38.886 13.442 9.889-1.715 14.822-4.331 26.464-14.035 5.187-4.322 5.477-4.482 6.505-3.589.347.302 4.141 2.945 8.431 5.873 4.29 2.927 12.39 8.47 18 12.317a65412.535 65412.535 0 0 0 43.017 29.461 15071.18 15071.18 0 0 1 21.267 14.593c6.554 4.506 14.205 9.726 17.002 11.6 2.797 1.874 5.092 3.632 5.1 3.907.011.399-30.725.5-152.386.5-121.659 0-152.398-.101-152.39-.5.006-.275 2.481-2.147 5.5-4.16a720.93 720.93 0 0 0 9.09-6.161c3.376-2.344 11.357-7.821 24.4-16.743 3.08-2.106 7.966-5.452 10.858-7.433 2.892-1.982 10.272-7.035 16.4-11.229 6.128-4.194 15.822-10.841 21.542-14.77 5.72-3.929 13.55-9.285 17.4-11.902 3.85-2.617 7.264-5.016 7.586-5.33 1.001-.978 1.484-.703 7.328 4.159" fill="#fbfbfb"/>
    <path d="M189.024.613c-.428.323-1.182.587-1.677.587-.495 0-1.011.18-1.147.4-.136.22-.525.4-.865.4-1.711 0-10.458 4.914-13.172 7.4-.24.22-1.031.85-1.759 1.4-.727.55-1.817 1.45-2.421 2a80.87 80.87 0 0 1-2.826 2.4c-2.006 1.625-11.283 9.293-12.761 10.548a308.47 308.47 0 0 1-3.2 2.647c-1.208.986-2.286 1.889-2.396 2.005-.11.116-1.19 1.016-2.4 2s-2.29 1.881-2.4 1.995c-.373.383-4.989 4.205-7 5.796-1.1.87-2.09 1.68-2.2 1.801-.11.12-1.19 1.024-2.4 2.008s-2.29 1.884-2.4 2c-.11.116-1.19 1.016-2.4 2s-2.29 1.881-2.4 1.995c-.11.113-1.311 1.15-2.668 2.305l-2.469 2.1H82.104c-38.87 0-37.334-.077-42.104 2.119-6.008 2.766-12.617 9.575-14.445 14.881-.303.88-.663 1.69-.801 1.8-.711.568-.894 5.731-1.114 31.505l-.24 28.105-4.453 3.695c-5.215 4.327-7.481 6.192-8.864 7.295-.551.44-1.382 1.16-1.845 1.6-.464.44-1.552 1.331-2.418 1.98-2.177 1.63-4.62 4.204-4.62 4.868 0 .304-.27.552-.6.552-.419 0-.6.422-.6 1.4 0 1.857.117 1.787 1.399-.835.981-2.004 10.852-10.771 22.601-20.073.11-.087.29-12.878.4-28.425l.2-28.267 1.129-3.196c3.17-8.97 10.288-15.522 19.343-17.803 2.992-.755 4.653-.789 38.328-.802l35.2-.014 7.8-6.484 26.8-22.28c21.092-17.535 23.581-19.448 28.2-21.674 3.272-1.577 9.206-3.501 11-3.567 2.497-.091 2.497-.724 0-.739-1.688-.01-2.872.19-3.376.572M206.2.404c.66.178 2.19.536 3.4.796 4.881 1.05 9.992 3.265 14.476 6.273 2.068 1.388 12.299 9.809 45.691 37.612l11.633 9.686 35.2.02c33.622.02 35.34.057 38.318.807 9.974 2.513 17.338 9.855 19.889 19.829.752 2.942.793 4.49.793 30.24v27.138l.9.783c.495.43 5.397 4.524 10.893 9.097 9.088 7.562 10.103 8.531 11.2 10.697 1.156 2.283 1.212 2.331 1.328 1.158.186-1.877-1.666-3.915-8.849-9.74-.406-.33-1.129-.932-1.606-1.338a271.553 271.553 0 0 0-2.641-2.2c-5.391-4.44-9.105-7.53-9.72-8.084-.644-.582-.703-2.645-.821-28.603-.119-26.193-.219-29.1-1.074-31.175-.181-.44-.565-1.43-.852-2.2-2.018-5.405-8.415-11.945-14.358-14.681-4.77-2.196-3.234-2.119-42.104-2.119h-35.959l-2.469-2.1c-1.357-1.155-2.558-2.192-2.668-2.305-.11-.114-1.19-1.011-2.4-1.995-1.21-.984-2.29-1.886-2.4-2.004-.224-.24-8.201-6.842-11.6-9.6-1.21-.982-2.29-1.878-2.4-1.991-.11-.114-1.82-1.556-3.8-3.206a482.292 482.292 0 0 1-4.053-3.399c-.249-.22-1.232-1.03-2.183-1.8-.952-.77-4.618-3.792-8.147-6.715-5.675-4.701-7.373-6.114-10.196-8.485a73.203 73.203 0 0 0-2.021-1.6 56.55 56.55 0 0 1-2.153-1.733c-1.252-1.086-7.12-4.211-9.435-5.027-1.108-.39-2.134-.829-2.28-.975-.146-.146-.651-.265-1.122-.265-.471 0-1.206-.264-1.634-.587-.509-.385-1.671-.578-3.376-.559-2.076.022-2.358.093-1.4.35m-11.6 23.762c-3.421 1.095-5.55 2.474-11.673 7.56-3.492 2.901-10.979 9.116-16.638 13.812-5.659 4.696-10.289 8.701-10.289 8.9 0 .463 87.876.486 88.162.023.115-.186-.49-.861-1.345-1.5-.855-.638-6.094-4.941-11.641-9.561-21.668-18.045-21.452-17.885-25.94-19.26-2.198-.673-8.5-.658-10.636.026m9.4.546c4.457.942 6.727 2.363 14.404 9.018.552.478 1.992 1.678 3.2 2.665 1.208.986 2.286 1.889 2.396 2.005.171.18 2.259 1.905 5.394 4.456 2.739 2.229 8.532 7.054 9.206 7.668.44.401 1.559 1.302 2.488 2.003.928.7 1.693 1.408 1.7 1.573.006.165-19.248.3-42.788.3-23.54 0-42.794-.135-42.788-.3.007-.165.772-.873 1.7-1.573.929-.701 2.048-1.602 2.488-2.003.674-.614 6.467-5.439 9.206-7.668 3.135-2.551 5.223-4.276 5.394-4.456.11-.116 1.19-1.016 2.4-2s2.29-1.884 2.4-2c.11-.116 1.19-1.016 2.4-2s2.29-1.894 2.4-2.022c.683-.795 4.671-3.66 5.73-4.117 2.888-1.247 3.558-1.461 4.589-1.467.594-.003 1.351-.189 1.681-.412.643-.435 3.473-.289 6.4.33M48.96 79.36l-1.36 1.36v92.44l3.3 2.746c1.815 1.51 9.78 8.125 17.7 14.7 7.92 6.575 19.71 16.365 26.2 21.756 6.49 5.391 15.4 12.789 19.8 16.44l22.2 18.428c7.81 6.485 18.25 15.145 23.2 19.247 4.95 4.101 13.56 11.239 19.132 15.861C191.548 292.636 193.334 293.6 200 293.6c3.612 0 5.706-.465 8.865-1.968 1.817-.864 4.64-3.137 28.335-22.813 6.27-5.206 16.8-13.946 23.4-19.422 6.6-5.475 15.6-12.944 20-16.597 4.4-3.653 12.32-10.224 17.6-14.602a48719.757 48719.757 0 0 0 41.3-34.286l12.9-10.72V80.72l-1.36-1.36-1.36-1.36H50.32l-1.36 1.36m300.803-.174c2.316.881 2.237-.835 2.237 48.415v45.104l-1.365 1.041c-.751.573-1.606 1.27-1.9 1.55-.294.279-1.525 1.314-2.735 2.3-1.21.986-2.29 1.888-2.4 2.004-.11.116-1.19 1.016-2.4 2s-2.29 1.884-2.4 2c-.11.116-1.19 1.016-2.4 2s-2.29 1.881-2.4 1.995c-.11.113-1.1.919-2.2 1.791-1.1.873-2.09 1.685-2.2 1.806-.11.12-1.19 1.024-2.4 2.008s-2.29 1.884-2.4 2c-.11.116-1.19 1.016-2.4 2s-2.29 1.884-2.4 2c-.11.116-1.19 1.016-2.4 2s-2.29 1.881-2.4 1.995c-.11.113-1.1.919-2.2 1.791-1.1.873-2.09 1.685-2.2 1.806-.11.12-1.19 1.026-2.4 2.012a160.07 160.07 0 0 0-2.653 2.194 105.76 105.76 0 0 1-2.151 1.781c-.933.759-1.899 1.569-2.147 1.802-.247.232-1.439 1.229-2.649 2.215-1.21.986-2.29 1.893-2.4 2.015-.11.122-2.18 1.832-4.6 3.8-2.42 1.968-4.604 3.761-4.853 3.984-.249.223-1.149.972-2 1.665-.851.694-1.936 1.594-2.411 2-.475.407-1.555 1.307-2.4 2-.845.694-1.926 1.594-2.402 2-1.123.959-1.66 1.404-5.734 4.745-1.87 1.534-3.604 2.97-3.853 3.192a94.4 94.4 0 0 1-2 1.663c-.851.694-1.937 1.594-2.413 2-.477.407-1.197 1.01-1.6 1.341-.404.331-2.901 2.401-5.551 4.6-2.649 2.199-5.59 4.629-6.536 5.399-.945.77-2.108 1.733-2.583 2.14-.475.406-1.56 1.306-2.411 2a98.661 98.661 0 0 0-2 1.662 160.07 160.07 0 0 1-2.653 2.194c-1.21.986-2.29 1.89-2.4 2.008-.17.182-6.038 5.05-8.606 7.14-3.135 2.551-5.223 4.276-5.394 4.456-.11.116-1.188 1.019-2.396 2.005a197.056 197.056 0 0 0-3.2 2.665c-15.154 13.135-21.654 13.135-36.808 0a197.056 197.056 0 0 0-3.2-2.665c-1.208-.986-2.286-1.889-2.396-2.005-.11-.116-1.19-1.016-2.4-2s-2.29-1.888-2.4-2.008c-.11-.121-1.1-.933-2.2-1.806-1.1-.872-2.09-1.678-2.2-1.791-.11-.114-1.19-1.011-2.4-1.995-1.21-.984-2.29-1.884-2.4-2-.11-.116-1.19-1.016-2.4-2s-2.29-1.884-2.4-2c-.11-.116-1.19-1.018-2.4-2.004a168.254 168.254 0 0 1-2.655-2.194 53.18 53.18 0 0 0-1.2-1.01c-4.534-3.702-7.581-6.217-7.745-6.391-.11-.116-1.19-1.019-2.4-2.005a160.07 160.07 0 0 1-2.653-2.194 98.661 98.661 0 0 0-2-1.662 175.513 175.513 0 0 1-2.411-2c-.475-.407-1.639-1.37-2.586-2.14-.947-.77-3.011-2.48-4.587-3.8a509.558 509.558 0 0 0-4.414-3.66 171.529 171.529 0 0 1-2.413-2 187.238 187.238 0 0 0-2.4-2 205.64 205.64 0 0 1-2.4-2c-.475-.407-1.636-1.37-2.58-2.14-.943-.77-2.984-2.452-4.536-3.737l-4.42-3.662c-.88-.729-1.989-1.657-2.464-2.063a198.636 198.636 0 0 0-2.4-1.998 217.432 217.432 0 0 1-2.402-2c-.477-.407-1.2-1.01-1.606-1.34-2.768-2.244-5.158-4.222-5.328-4.408-.11-.121-1.1-.933-2.2-1.806-1.1-.872-2.09-1.678-2.2-1.791-.11-.114-1.19-1.011-2.4-1.995-1.21-.984-2.29-1.884-2.4-2-.11-.116-1.189-1.019-2.399-2.005-1.209-.987-2.581-2.155-3.049-2.595-.94-.883-1.059-.981-5.352-4.404-1.65-1.316-3.09-2.486-3.2-2.6-.11-.114-1.19-1.012-2.4-1.996s-2.29-1.884-2.4-2c-.11-.116-1.189-1.019-2.399-2.005-1.209-.987-2.581-2.155-3.049-2.595-.935-.878-1.127-1.038-5.052-4.181l-2.7-2.163v-45.079c0-48.861-.06-47.495 2.113-48.369 1.245-.501 298.332-.523 299.65-.022M110.4 117.177c-.33.182-1.098.563-1.706.847-.608.285-1.913 1.313-2.9 2.286-1.658 1.635-2.073 2.307-3.338 5.409-.562 1.379-.603 5.743-.056 6.081.22.136.4.599.4 1.029 0 1.192 1.6 3.648 3.345 5.136.409.349.949.815 1.2 1.035.25.22.995.646 1.655.947.66.3 1.513.705 1.895.9.915.465 117.295.465 118.21 0a59.41 59.41 0 0 1 1.895-.9c1.492-.68 5.4-4.556 5.4-5.356 0-.325.18-.591.4-.591.22 0 .4-.529.4-1.176 0-.647.18-1.288.4-1.424.22-.136.4-1.306.4-2.6s-.18-2.464-.4-2.6c-.22-.136-.4-.599-.4-1.029 0-2.13-3.376-5.848-6.712-7.393l-2.112-.978-58.688.024c-32.278.012-58.958.172-59.288.353m119.048.875c9.341 3.495 10.044 16.469 1.152 21.282l-1.6.866-58.6.105-58.6.106-2.477-1.22c-9.461-4.656-8.286-18.069 1.877-21.442 1.035-.344 16.345-.476 58.685-.507l57.285-.042 2.278.852M110.6 164c-.136.22-.597.4-1.024.4-.427 0-.776.18-.776.4 0 .22-.24.4-.534.4-.294 0-1.374.828-2.4 1.84-1.725 1.7-2.143 2.371-3.41 5.479-.562 1.379-.603 5.743-.056 6.081.22.136.4.599.4 1.029 0 1.809 3.535 6.062 5.977 7.191.563.261 1.336.632 1.718.827 1.003.51 178.589.464 178.905-.047.136-.22.597-.4 1.024-.4.427 0 .776-.18.776-.4 0-.22.225-.401.5-.402 1.369-.005 5.5-5.089 5.5-6.769 0-.43.18-.893.4-1.029.547-.338.506-4.702-.056-6.081-1.267-3.108-1.685-3.779-3.41-5.479-1.026-1.012-2.106-1.84-2.4-1.84-.294 0-.534-.18-.534-.4 0-.22-.349-.4-.776-.4-.427 0-.888-.18-1.024-.4-.343-.554-178.457-.554-178.8 0m179.42 1.042c10.249 4.742 9.142 19.098-1.695 21.983-3.184.847-173.466.847-176.65 0-11.512-3.064-11.784-18.868-.386-22.439 1.411-.442 17.052-.523 89.311-.461l87.6.075 1.82.842M23.596 184.3c-.317 26.966.128 176.402.529 177.579.679 1.994.086 2.275 10.975-5.204 9.469-6.504 23.542-16.151 42.9-29.408 5.61-3.841 11.64-7.984 13.4-9.206 1.76-1.221 8.24-5.663 14.4-9.871 35.038-23.932 36.6-25.024 36.6-25.581 0-.238-2.283-2.317-5.073-4.621a17568.56 17568.56 0 0 1-22.1-18.321c-9.365-7.773-21.527-17.865-27.027-22.428a223341.68 223341.68 0 0 1-60.876-50.517c-3.243-2.695-3.721-3.005-3.728-2.422m348.564 2.823a3032.689 3032.689 0 0 1-14 11.668c-16.363 13.57-54.614 45.324-84.36 70.03-8.8 7.31-16 13.525-16 13.811 0 .589.49.943 16.2 11.703l21.4 14.661c5.5 3.769 15.13 10.366 21.4 14.66 6.27 4.293 12.84 8.797 14.6 10.008 1.76 1.211 8.69 5.956 15.4 10.544a5821.728 5821.728 0 0 1 19.894 13.665c8.895 6.154 8.507 5.985 9.181 4.006.584-1.715.814-177.604.232-177.753-.169-.044-1.945 1.305-3.947 2.997m-345.375.098c.928.758 2.076 1.712 2.551 2.119.475.406 1.562 1.306 2.414 2a1030.555 1030.555 0 0 1 14.114 11.725c.475.404 1.555 1.302 2.4 1.995.845.694 1.926 1.594 2.402 2 1.134.968 1.918 1.609 4.334 3.541 1.1.879 2.09 1.691 2.2 1.804.11.114 1.19 1.013 2.4 1.999 1.21.986 2.402 1.983 2.649 2.215.248.233 1.209 1.043 2.136 1.802.928.758 2.076 1.712 2.551 2.119.475.406 1.56 1.306 2.411 2a89.693 89.693 0 0 1 2 1.665c.249.223 2.433 2.016 4.853 3.984s4.49 3.678 4.6 3.8c.11.122 1.19 1.027 2.4 2.011 1.21.984 2.29 1.884 2.4 2 .11.116 1.19 1.016 2.4 2s2.29 1.886 2.4 2.004c.11.119 2.18 1.824 4.6 3.79 2.42 1.965 4.49 3.673 4.6 3.795.11.122 1.19 1.027 2.4 2.011 1.21.984 2.29 1.884 2.4 2 .11.116 1.19 1.016 2.4 2s2.29 1.884 2.4 2c.11.116 1.19 1.016 2.4 2s2.29 1.881 2.4 1.995c.11.113 1.1.919 2.2 1.791 1.1.873 2.09 1.685 2.2 1.806.11.12 1.19 1.024 2.4 2.008s2.29 1.884 2.4 2c.11.116 1.19 1.016 2.4 2s2.29 1.884 2.4 2c.11.116 1.19 1.016 2.4 2s2.29 1.888 2.4 2.008c.11.121 1.1.933 2.2 1.806 1.1.872 2.09 1.684 2.2 1.803.11.12 1.219 1.038 2.465 2.042l2.265 1.824-9.665 6.532c-5.316 3.592-9.725 6.678-9.798 6.858-.074.18-.355.327-.625.327s-.84.323-1.267.718c-.426.395-5.275 3.76-10.775 7.478-5.5 3.719-10.06 6.906-10.133 7.082-.074.177-.389.322-.7.322-.312 0-.567.18-.567.4 0 .22-.27.4-.6.4-.33 0-.6.18-.6.4 0 .22-.255.4-.567.4-.311 0-.626.145-.7.323-.131.319-5.352 3.943-13.533 9.395-2.31 1.54-4.26 2.953-4.333 3.141-.074.187-.389.341-.7.341-.312 0-.567.18-.567.4 0 .22-.255.4-.567.4-.311 0-.626.151-.7.335-.131.329-5.541 4.071-14.666 10.145-2.545 1.693-4.953 3.358-5.352 3.7-.398.341-.902.62-1.12.62a.399.399 0 0 0-.395.4c0 .22-.27.4-.6.4-.33 0-.6.18-.6.4 0 .22-.255.4-.567.4-.311 0-.626.15-.7.334-.125.313-2.917 2.265-13.08 9.145-2.339 1.583-4.47 3.068-4.736 3.3-.266.231-.671.421-.9.421a.41.41 0 0 0-.417.4c0 .22-.255.4-.567.4-.311 0-.626.149-.7.33-.073.182-1.51 1.255-3.192 2.385l-3.06 2.055-.298-1.685c-.611-3.445-.646-176.405-.036-175.795.303.303 1.311 1.172 2.238 1.931M375.602 359.36c-.221.638-.402 1.679-.402 2.315v1.155l-2.5-1.687c-1.375-.928-2.56-1.835-2.633-2.015-.074-.181-.374-.328-.667-.328-.293 0-.593-.155-.667-.345-.073-.19-2.293-1.742-4.933-3.448-2.64-1.706-4.86-3.26-4.933-3.454-.074-.194-.374-.353-.667-.353-.293 0-.593-.15-.667-.334-.073-.183-2.113-1.653-4.533-3.266-2.42-1.613-4.46-3.083-4.533-3.266-.074-.184-.374-.334-.667-.334-.293 0-.593-.154-.667-.343-.073-.189-2.563-1.962-5.533-3.941-9.382-6.252-14.596-9.859-14.733-10.193-.074-.178-.389-.323-.7-.323-.312 0-.567-.18-.567-.4 0-.22-.255-.4-.567-.4-.311 0-.626-.144-.7-.321-.073-.176-4.903-3.539-10.733-7.472-5.83-3.934-10.66-7.3-10.733-7.48-.074-.18-.374-.327-.667-.327-.293 0-.593-.146-.667-.325-.073-.179-4.633-3.364-10.133-7.079-5.5-3.714-10.06-6.898-10.133-7.074-.074-.177-.374-.322-.667-.322-.293 0-.593-.144-.667-.319-.073-.176-4.633-3.358-10.133-7.07-5.5-3.713-10.06-6.9-10.133-7.081-.074-.182-.389-.33-.7-.33-1.032 0-.592-.705 1.533-2.457 1.155-.953 2.19-1.825 2.3-1.939.11-.114 1.55-1.28 3.2-2.592 1.65-1.311 3.2-2.57 3.444-2.798.83-.773 2.757-2.408 4.96-4.209 1.208-.986 2.286-1.889 2.396-2.005.11-.116 1.19-1.016 2.4-2s2.29-1.882 2.4-1.996c.11-.114 1.55-1.284 3.2-2.6 4.293-3.423 4.412-3.521 5.352-4.404.468-.44 1.84-1.608 3.049-2.595 1.21-.986 2.289-1.889 2.399-2.005.11-.116 1.187-1.019 2.394-2.005a750.098 750.098 0 0 0 3-2.466c.443-.369 2.156-1.779 3.806-3.133 3.977-3.264 5.881-4.839 6.932-5.736.478-.406 1.559-1.306 2.404-2 .845-.693 1.925-1.592 2.4-1.998 1.701-1.453 9.033-7.533 11.411-9.462a166.44 166.44 0 0 0 2.589-2.14 205.64 205.64 0 0 1 2.4-2 169.494 169.494 0 0 0 4.264-3.588c.55-.48 2.98-2.491 5.4-4.469 5.68-4.644 5.713-4.672 6.734-5.543.476-.406 1.557-1.306 2.402-2 .845-.693 1.925-1.593 2.4-2 .475-.406 1.56-1.306 2.411-2 .851-.693 1.755-1.44 2.01-1.66 1.517-1.312 5.533-4.639 7.243-6.002 1.1-.876 2.45-1.987 3-2.467 1.36-1.189 2.419-2.078 4.441-3.731.942-.77 1.903-1.603 2.136-1.852.578-.618.802 172.349.225 174.012M149.8 306.376c-6.38 4.379-14.93 10.238-19 13.02s-11 7.527-15.4 10.545c-8.422 5.776-26.024 17.843-41.8 28.655-22.04 15.106-25.576 17.561-25.457 17.681.217.216 303.457.139 303.457-.078 0-.113-67.981-.203-151.068-.201-83.088.003-150.993-.07-150.9-.161.092-.091 1.878-1.285 3.968-2.653 2.09-1.367 3.86-2.643 3.933-2.835.074-.192.374-.349.667-.349.293 0 .593-.146.667-.325.073-.179 4.633-3.364 10.133-7.079 5.5-3.714 10.06-6.898 10.133-7.074.074-.177.355-.322.625-.322s.84-.322 1.267-.716c.426-.394 5.275-3.757 10.775-7.474 5.5-3.716 10.06-6.904 10.133-7.084.074-.179.389-.326.7-.326.312 0 .567-.15.567-.332 0-.183.495-.588 1.1-.9.605-.312 1.19-.672 1.3-.801.11-.129 1.91-1.374 4-2.767 2.09-1.393 3.89-2.646 4-2.786.11-.139 2.36-1.667 5-3.396 2.64-1.729 4.86-3.296 4.933-3.481.074-.185.389-.337.7-.337.312 0 .567-.18.567-.4 0-.22.255-.4.567-.4.311 0 .626-.151.7-.335.105-.263 7.542-5.465 10.673-7.465.344-.22.827-.58 1.072-.8.245-.22 2.233-1.57 4.417-3 2.184-1.43 4.031-2.735 4.104-2.9.074-.165.389-.3.7-.3.312 0 .567-.15.567-.332 0-.183.495-.588 1.1-.9.605-.312 1.19-.672 1.3-.801.11-.129 1.91-1.378 4-2.776 2.09-1.397 4.02-2.76 4.289-3.027 1.508-1.496 3.343-2.259 4.03-1.674 11.747 9.989 15.989 12.962 21.281 14.919.99.366 2.16.808 2.6.983.781.309 2.787.874 5.2 1.463 1.561.381 15.639.381 17.2 0 2.413-.589 4.419-1.154 5.2-1.463.44-.175 1.61-.617 2.6-.983 5.042-1.864 9.775-5.102 18.986-12.992 3.27-2.801 2.758-2.706 5.271-.976 1.244.857 2.551 1.739 2.903 1.959.352.22.73.503.84.628.173.197 7.921 5.504 24.337 16.672 2.345 1.594 4.58 3.169 4.968 3.5.387.33.882.6 1.1.6.217 0 .395.18.395.4 0 .22.255.4.567.4.311 0 .626.152.7.337.073.185 2.473 1.895 5.333 3.8 7.506 5 13.892 9.37 14.705 10.063.387.33.867.6 1.066.6.199 0 .422.155.496.345.073.189 2.293 1.774 4.933 3.521 7.871 5.209 15.191 10.277 15.333 10.617.074.174.389.317.7.317.312 0 .567.18.567.4 0 .22.255.4.567.4.311 0 .626.145.7.322.073.176 4.633 3.36 10.133 7.074 5.5 3.715 10.06 6.9 10.133 7.079.074.179.389.325.7.325.312 0 .567.18.567.4 0 .22.255.4.567.4.311 0 .626.157.7.35.162.427 6.296 4.45 6.784 4.45.747 0 .175-.455-4.951-3.943-2.915-1.984-9.84-6.723-15.388-10.532A40364.075 40364.075 0 0 0 306.599 345c-7.383-5.06-16.442-11.27-20.13-13.8-3.687-2.53-11.917-8.165-18.287-12.523-6.37-4.358-13.472-9.224-15.782-10.814-13.999-9.635-13.947-9.603-14.69-9.016-.385.304-2.804 2.293-5.376 4.419-12.583 10.402-20.754 13.92-32.334 13.92-11.778 0-19.873-3.565-32.927-14.501-2.813-2.357-5.24-4.282-5.394-4.278-.153.004-5.499 3.59-11.879 7.969M.028 364.851c-.02 1.895.143 2.793.572 3.149.33.274.6.928.6 1.454 0 .526.159 1.269.353 1.651.195.382.577 1.235.85 1.895 5.036 12.188 15.406 21.949 26.997 25.412.88.262 2.152.738 2.827 1.056.748.353 2.073.528 3.4.448 2.366-.143 2.246-.206-2.227-1.162-12.057-2.577-22.972-11.155-28.714-22.567-1.766-3.51-3.862-9.623-3.914-11.415-.073-2.509-.717-2.44-.744.079m399.451-1.051c-3.189 16.235-13.892 28.831-28.679 33.752-4.584 1.526-5.036 1.648-6.228 1.676-2.797.067-2.684.717.128.744 1.648.016 2.9-.141 2.9-.364 0-.216.495-.501 1.1-.633 4.241-.926 10.988-4.305 15.488-7.757 4.96-3.805 10.645-11.529 13.409-18.218.273-.66.655-1.513.85-1.895.194-.382.353-1.087.353-1.568 0-.481.279-1.182.62-1.559.457-.505.588-1.358.497-3.232-.119-2.453-.135-2.488-.438-.946" fill="#a1a1a1"/>
    <path d="M156.9 164.3c23.705.057 62.495.057 86.2 0 23.705-.057 4.31-.104-43.1-.104-47.41 0-66.805.047-43.1.104" fill="#c4c4c4"/>
    <path d="M198.7 23.489c.715.089 1.885.089 2.6 0 .715-.088.13-.161-1.3-.161-1.43 0-2.015.073-1.3.161M23.396 272.6c0 47.96.047 67.639.104 43.732.057-23.907.057-63.147 0-87.2-.057-24.053-.104-4.492-.104 43.468m353.2 0c0 47.96.047 67.639.104 43.732.057-23.907.057-63.147 0-87.2-.057-24.053-.104-4.492-.104 43.468M156.5 187.5c23.925.057 63.075.057 87 0 23.925-.057 4.35-.104-43.5-.104s-67.425.047-43.5.104m42.2 106.389c.715.089 1.885.089 2.6 0 .715-.088.13-.161-1.3-.161-1.43 0-2.015.073-1.3.161m-74 82.811c41.415.056 109.185.056 150.6 0 41.415-.056 7.53-.102-75.3-.102s-116.715.046-75.3.102" fill="#bcbcbc"/>
    <path d="M195.6.412c-.419.279-.058.321 1.2.138 2.241-.325 2.56-.552.767-.544-.752.003-1.637.186-1.967.406m5.633-.268c.092.08.977.262 1.967.406 1.258.183 1.619.141 1.2-.138-.54-.359-3.568-.615-3.167-.268M66.53 55.1c9.642.06 25.302.06 34.8 0 9.499-.06 1.61-.109-17.53-.109s-26.911.049-17.27.109m111.37 0c12.155.059 32.045.059 44.2 0 12.155-.059 2.21-.107-22.1-.107-24.31 0-34.255.048-22.1.107m121.03 0c9.642.06 25.302.06 34.8 0 9.499-.06 1.61-.109-17.53-.109s-26.911.049-17.27.109M125.7 77.9c40.865.056 107.735.056 148.6 0 40.865-.056 7.43-.102-74.3-.102-81.73 0-115.165.046-74.3.102M47.393 127c0 25.52.048 36.019.107 23.331.059-12.688.059-33.568 0-46.4s-.107-2.451-.107 23.069m305.2 0c0 25.52.048 36.019.107 23.331.059-12.688.059-33.568 0-46.4s-.107-2.451-.107 23.069m-210.862-9.5c15.582.058 40.962.058 56.4 0 15.438-.058 2.689-.105-28.331-.105s-43.651.047-28.069.105m94.797 11.3c0 1.43.073 2.015.161 1.3.089-.715.089-1.885 0-2.6-.088-.715-.161-.13-.161 1.3m-76.16 169.9c-.45.596-.446.625.031.2.773-.689 1.588-.626 2.57.2.83.699.83.699.069-.2-.913-1.078-1.946-1.156-2.67-.2M95 315.835l-1.2 1.031 1.3-.86c.715-.473 1.3-.938 1.3-1.033 0-.3-.169-.195-1.4.862M399.649 359.4a17.47 17.47 0 0 1-.266 1.8l-.206 1 .429-.981c.236-.54.355-1.35.266-1.8-.159-.798-.165-.798-.223-.019M.08 359.8c0 .44.144 1.25.32 1.8.254.792.32.833.32.2 0-.44-.144-1.25-.32-1.8-.254-.792-.32-.833-.32-.2m386.495 27.9L385.4 389l1.3-1.175c.715-.646 1.3-1.231 1.3-1.3 0-.309-.33-.037-1.425 1.175M38.6 399.58c.761.346 3.717.584 3.367.271-.092-.082-1.067-.258-2.167-.392-1.346-.164-1.739-.124-1.2.121m320.6.02-1.4.295 1.4.024c.77.014 1.76-.13 2.2-.319l.8-.344-.8.025c-.44.013-1.43.157-2.2.319" fill="#ccc"/>
  </g>
</svg>